<svg xmlns="http://www.w3.org/2000/svg" viewBox="0 0 1280 320" width="1280" height="320" role="img" aria-label="Reclaim — Reclaim your Windows">
  <defs>
    <linearGradient id="bg" x1="0" y1="0" x2="1" y2="1">
      <stop offset="0%" stop-color="#0a0f1a"/>
      <stop offset="55%" stop-color="#0f1626"/>
      <stop offset="100%" stop-color="#070b14"/>
    </linearGradient>
    <radialGradient id="glow" cx="22%" cy="38%" r="55%">
      <stop offset="0%" stop-color="#60cdff" stop-opacity="0.35"/>
      <stop offset="55%" stop-color="#60cdff" stop-opacity="0.06"/>
      <stop offset="100%" stop-color="#60cdff" stop-opacity="0"/>
    </radialGradient>
    <radialGradient id="glow2" cx="85%" cy="80%" r="45%">
      <stop offset="0%" stop-color="#8a6bff" stop-opacity="0.25"/>
      <stop offset="100%" stop-color="#8a6bff" stop-opacity="0"/>
    </radialGradient>
    <linearGradient id="title" x1="0" y1="0" x2="1" y2="0">
      <stop offset="0%" stop-color="#ffffff"/>
      <stop offset="55%" stop-color="#cfe9ff"/>
      <stop offset="100%" stop-color="#60cdff"/>
    </linearGradient>
    <linearGradient id="accentBar" x1="0" y1="0" x2="1" y2="0">
      <stop offset="0%" stop-color="#60cdff"/>
      <stop offset="100%" stop-color="#8a6bff"/>
    </linearGradient>
    <pattern id="grid" width="48" height="48" patternUnits="userSpaceOnUse">
      <path d="M48 0H0V48" fill="none" stroke="#ffffff" stroke-opacity="0.035" stroke-width="1"/>
    </pattern>
    <filter id="soft" x="-10%" y="-10%" width="120%" height="120%">
      <feGaussianBlur stdDeviation="0.4"/>
    </filter>
  </defs>

  <rect width="1280" height="320" fill="url(#bg)"/>
  <rect width="1280" height="320" fill="url(#grid)"/>
  <rect width="1280" height="320" fill="url(#glow)"/>
  <rect width="1280" height="320" fill="url(#glow2)"/>

  <!-- Wordmark -->
  <g font-family="Segoe UI Variable, Segoe UI, Inter, system-ui, sans-serif">
    <text x="72" y="178"
          font-size="120"
          font-weight="700"
          letter-spacing="-4"
          fill="url(#title)"
          filter="url(#soft)">Reclaim</text>

    <!-- Tagline -->
    <text x="76" y="222"
          font-size="22"
          font-weight="500"
          letter-spacing="0.5"
          fill="#cfe9ff"
          fill-opacity="0.78">Reclaim your Windows.</text>

    <!-- Tech chips -->
    <g transform="translate(76,250)" font-size="12" font-weight="600" letter-spacing="1.2">
      <g>
        <rect x="0" y="0" width="118" height="26" rx="13" fill="#ffffff" fill-opacity="0.05" stroke="#60cdff" stroke-opacity="0.35"/>
        <text x="59" y="17" text-anchor="middle" fill="#cfe9ff">WINDOWS 11</text>
      </g>
      <g transform="translate(130,0)">
        <rect x="0" y="0" width="92" height="26" rx="13" fill="#ffffff" fill-opacity="0.05" stroke="#ffffff" stroke-opacity="0.12"/>
        <text x="46" y="17" text-anchor="middle" fill="#cfe9ff">TAURI 2</text>
      </g>
      <g transform="translate(234,0)">
        <rect x="0" y="0" width="96" height="26" rx="13" fill="#ffffff" fill-opacity="0.05" stroke="#ffffff" stroke-opacity="0.12"/>
        <text x="48" y="17" text-anchor="middle" fill="#cfe9ff">SVELTE 5</text>
      </g>
      <g transform="translate(340,0)">
        <rect x="0" y="0" width="76" height="26" rx="13" fill="#ffffff" fill-opacity="0.05" stroke="#ffffff" stroke-opacity="0.12"/>
        <text x="38" y="17" text-anchor="middle" fill="#cfe9ff">FLUENT</text>
      </g>
    </g>
  </g>

  <!-- Decorative "tiles" — a stylized debloater grid in the corner -->
  <g transform="translate(932,52)" opacity="0.85">
    <g>
      <rect width="60" height="60" rx="10" fill="#60cdff" fill-opacity="0.12" stroke="#60cdff" stroke-opacity="0.45"/>
      <path d="M18 30 L27 39 L42 22" stroke="#60cdff" stroke-width="3" stroke-linecap="round" stroke-linejoin="round" fill="none"/>
    </g>
    <g transform="translate(72,0)">
      <rect width="60" height="60" rx="10" fill="#ffffff" fill-opacity="0.05" stroke="#ffffff" stroke-opacity="0.18"/>
      <path d="M30 16 v28 M16 30 h28" stroke="#cfe9ff" stroke-width="3" stroke-linecap="round"/>
    </g>
    <g transform="translate(144,0)">
      <rect width="60" height="60" rx="10" fill="#ffffff" fill-opacity="0.05" stroke="#ffffff" stroke-opacity="0.18"/>
      <circle cx="30" cy="30" r="11" stroke="#cfe9ff" stroke-width="3" fill="none"/>
      <path d="M30 19 v11 l8 5" stroke="#cfe9ff" stroke-width="3" stroke-linecap="round" fill="none"/>
    </g>
    <g transform="translate(216,0)">
      <rect width="60" height="60" rx="10" fill="#ffffff" fill-opacity="0.05" stroke="#ffffff" stroke-opacity="0.18"/>
      <path d="M20 40 L20 26 L30 26 L30 20 L40 20 L40 40 Z" stroke="#cfe9ff" stroke-width="3" stroke-linejoin="round" fill="none"/>
    </g>

    <g transform="translate(0,72)">
      <rect width="60" height="60" rx="10" fill="#ffffff" fill-opacity="0.05" stroke="#ffffff" stroke-opacity="0.18"/>
      <path d="M18 22 h24 M18 30 h18 M18 38 h22" stroke="#cfe9ff" stroke-width="3" stroke-linecap="round"/>
    </g>
    <g transform="translate(72,72)">
      <rect width="60" height="60" rx="10" fill="#60cdff" fill-opacity="0.12" stroke="#60cdff" stroke-opacity="0.45"/>
      <path d="M18 30 L27 39 L42 22" stroke="#60cdff" stroke-width="3" stroke-linecap="round" stroke-linejoin="round" fill="none"/>
    </g>
    <g transform="translate(144,72)">
      <rect width="60" height="60" rx="10" fill="#ffffff" fill-opacity="0.05" stroke="#ffffff" stroke-opacity="0.18"/>
      <rect x="18" y="20" width="24" height="20" rx="3" stroke="#cfe9ff" stroke-width="3" fill="none"/>
      <path d="M24 20 v-4 h12 v4" stroke="#cfe9ff" stroke-width="3" fill="none"/>
    </g>
    <g transform="translate(216,72)">
      <rect width="60" height="60" rx="10" fill="#ffffff" fill-opacity="0.05" stroke="#ffffff" stroke-opacity="0.18"/>
      <path d="M22 22 L38 38 M38 22 L22 38" stroke="#ff99a4" stroke-width="3" stroke-linecap="round"/>
    </g>

    <g transform="translate(0,144)">
      <rect width="60" height="60" rx="10" fill="#ffffff" fill-opacity="0.05" stroke="#ffffff" stroke-opacity="0.18"/>
      <path d="M22 22 L38 38 M38 22 L22 38" stroke="#ff99a4" stroke-width="3" stroke-linecap="round"/>
    </g>
    <g transform="translate(72,144)">
      <rect width="60" height="60" rx="10" fill="#ffffff" fill-opacity="0.05" stroke="#ffffff" stroke-opacity="0.18"/>
      <circle cx="30" cy="30" r="10" stroke="#fce100" stroke-width="3" fill="none"/>
      <path d="M30 24 v8 M30 36 v0.1" stroke="#fce100" stroke-width="3" stroke-linecap="round"/>
    </g>
    <g transform="translate(144,144)">
      <rect width="60" height="60" rx="10" fill="#60cdff" fill-opacity="0.12" stroke="#60cdff" stroke-opacity="0.45"/>
      <path d="M18 30 L27 39 L42 22" stroke="#60cdff" stroke-width="3" stroke-linecap="round" stroke-linejoin="round" fill="none"/>
    </g>
    <g transform="translate(216,144)">
      <rect width="60" height="60" rx="10" fill="#ffffff" fill-opacity="0.05" stroke="#ffffff" stroke-opacity="0.18"/>
      <path d="M20 30 h20 M30 20 v20" stroke="#cfe9ff" stroke-width="3" stroke-linecap="round"/>
    </g>
  </g>

  <!-- Bottom hairline -->
  <rect x="0" y="318" width="1280" height="2" fill="url(#accentBar)" opacity="0.6"/>
</svg>
